usemtl None

o Text

v 1.750000 0.000000 -0.542000
v 1.583000 0.000000 -0.379000
v 1.583000 0.000000 -0.369000
v 1.661000 0.000000 -0.369000
v 1.661000 0.000000 -0.132000
v 1.662020 0.000000 -0.112210
v 1.665079 0.000000 -0.093431
v 1.670172 0.000000 -0.075797
v 1.677296 0.000000 -0.059444
v 1.686449 0.000000 -0.044509
v 1.697625 0.000000 -0.031125
v 1.710822 0.000000 -0.019429
v 1.726037 0.000000 -0.009556
v 1.743266 0.000000 -0.001641
v 1.762505 0.000000 0.004181
v 1.783751 0.000000 0.007773
v 1.807000 0.000000 0.009000
v 1.814625 0.000000 0.008734
v 1.822917 0.000000 0.007958
v 1.831750 0.000000 0.006703
v 1.841000 0.000000 0.005000
v 1.850542 0.000000 0.002880
v 1.860250 0.000000 0.000375
v 1.870000 0.000000 -0.002484
v 1.879667 0.000000 -0.005667
v 1.889125 0.000000 -0.009141
v 1.898250 0.000000 -0.012875
v 1.906917 0.000000 -0.016839
v 1.915000 0.000000 -0.021000
v 1.915000 0.000000 -0.104000
v 1.906061 0.000000 -0.098729
v 1.897241 0.000000 -0.093917
v 1.888531 0.000000 -0.089563
v 1.879926 0.000000 -0.085667
v 1.871418 0.000000 -0.082229
v 1.863000 0.000000 -0.079250
v 1.854665 0.000000 -0.076729
v 1.846407 0.000000 -0.074667
v 1.838219 0.000000 -0.073063
v 1.830093 0.000000 -0.071917
v 1.822022 0.000000 -0.071229
v 1.814000 0.000000 -0.071000
v 1.807279 0.000000 -0.071326
v 1.800232 0.000000 -0.072356
v 1.793031 0.000000 -0.074172
v 1.785852 0.000000 -0.076852
v 1.778867 0.000000 -0.080476
v 1.772250 0.000000 -0.085125
v 1.766175 0.000000 -0.090878
v 1.760815 0.000000 -0.097815
v 1.756344 0.000000 -0.106016
v 1.752935 0.000000 -0.115560
v 1.750763 0.000000 -0.126528
v 1.750000 0.000000 -0.139000
v 1.750000 0.000000 -0.369000
v 1.892000 0.000000 -0.369000
v 1.892000 0.000000 -0.449000
v 1.750000 0.000000 -0.449000
v 1.570000 0.000000 -0.449000
v 1.456000 0.000000 -0.449000
v 1.328000 0.000000 -0.295000
v 1.195000 0.000000 -0.449000
v 1.083000 0.000000 -0.449000
v 1.272000 0.000000 -0.228000
v 1.083000 0.000000 0.000000
v 1.195000 0.000000 0.000000
v 1.328000 0.000000 -0.161000
v 1.469000 0.000000 0.000000
v 1.583000 0.000000 0.000000
v 1.385000 0.000000 -0.228000
v 1.042000 0.000000 -0.130000
v 1.029019 0.000000 -0.121795
v 1.016065 0.000000 -0.114194
v 1.003125 0.000000 -0.107219
v 0.990185 0.000000 -0.100889
v 0.977231 0.000000 -0.095226
v 0.964250 0.000000 -0.090250
v 0.951227 0.000000 -0.085983
v 0.938148 0.000000 -0.082444
v 0.925000 0.000000 -0.079656
v 0.911769 0.000000 -0.077639
v 0.898440 0.000000 -0.076413
v 0.885000 0.000000 -0.076000
v 0.864230 0.000000 -0.076957
v 0.844926 0.000000 -0.079819
v 0.827094 0.000000 -0.084578
v 0.810741 0.000000 -0.091222
v 0.795874 0.000000 -0.099741
v 0.782500 0.000000 -0.110125
v 0.770626 0.000000 -0.122363
v 0.760259 0.000000 -0.136444
v 0.751406 0.000000 -0.152359
v 0.744074 0.000000 -0.170097
v 0.738270 0.000000 -0.189648
v 0.734000 0.000000 -0.211000
v 1.050000 0.000000 -0.211000
v 1.048436 0.000000 -0.250731
v 1.043819 0.000000 -0.286935
v 1.036266 0.000000 -0.319625
v 1.025889 0.000000 -0.348815
v 1.012804 0.000000 -0.374519
v 0.997125 0.000000 -0.396750
v 0.978967 0.000000 -0.415523
v 0.958444 0.000000 -0.430852
v 0.935672 0.000000 -0.442750
v 0.910764 0.000000 -0.451232
v 0.883835 0.000000 -0.456310
v 0.855000 0.000000 -0.458000
v 0.824819 0.000000 -0.456111
v 0.796389 0.000000 -0.450556
v 0.769875 0.000000 -0.441500
v 0.745444 0.000000 -0.429111
v 0.723264 0.000000 -0.413556
v 0.703500 0.000000 -0.395000
v 0.686319 0.000000 -0.373611
v 0.671889 0.000000 -0.349556
v 0.660375 0.000000 -0.323000
v 0.651944 0.000000 -0.294111
v 0.646764 0.000000 -0.263056
v 0.645000 0.000000 -0.230000
v 0.646616 0.000000 -0.199249
v 0.651426 0.000000 -0.169241
v 0.659375 0.000000 -0.140344
v 0.670407 0.000000 -0.112926
v 0.684468 0.000000 -0.087355
v 0.701500 0.000000 -0.064000
v 0.721449 0.000000 -0.043228
v 0.744259 0.000000 -0.025407
v 0.769875 0.000000 -0.010906
v 0.798241 0.000000 -0.000093
v 0.829301 0.000000 0.006665
v 0.863000 0.000000 0.009000
v 0.881456 0.000000 0.008645
v 0.898898 0.000000 0.007574
v 0.915438 0.000000 0.005781
v 0.931185 0.000000 0.003259
v 0.946252 0.000000 0.000001
v 0.960750 0.000000 -0.004000
v 0.974789 0.000000 -0.008751
v 0.988482 0.000000 -0.014259
v 1.001938 0.000000 -0.020531
v 1.015269 0.000000 -0.027574
v 1.028586 0.000000 -0.035395
v 1.042000 0.000000 -0.044000
v 0.736000 0.000000 -0.270000
v 0.739603 0.000000 -0.287099
v 0.744407 0.000000 -0.302875
v 0.750406 0.000000 -0.317297
v 0.757593 0.000000 -0.330333
v 0.765960 0.000000 -0.341953
v 0.775500 0.000000 -0.352125
v 0.786207 0.000000 -0.360818
v 0.798074 0.000000 -0.368000
v 0.811094 0.000000 -0.373641
v 0.825259 0.000000 -0.377708
v 0.840564 0.000000 -0.380172
v 0.857000 0.000000 -0.381000
v 0.872243 0.000000 -0.380115
v 0.886445 0.000000 -0.377500
v 0.899563 0.000000 -0.373219
v 0.911556 0.000000 -0.367333
v 0.922382 0.000000 -0.359906
v 0.932000 0.000000 -0.351000
v 0.940368 0.000000 -0.340677
v 0.947444 0.000000 -0.329000
v 0.953188 0.000000 -0.316031
v 0.957556 0.000000 -0.301833
v 0.960507 0.000000 -0.286469
v 0.962000 0.000000 -0.270000
v 0.587000 0.000000 -0.682000
v 0.017000 0.000000 -0.682000
v 0.017000 0.000000 -0.594000
v 0.253000 0.000000 -0.594000
v 0.253000 0.000000 0.000000
v 0.351000 0.000000 0.000000
v 0.351000 0.000000 -0.594000
v 0.587000 0.000000 -0.594000

vt 0.017544 0.000000
vt 1.000000 0.000000
vt 0.000000 0.000000
vt 0.982456 0.000000
vt 0.964912 0.000000
vt 0.035088 0.000000
vt 0.052632 0.000000
vt 0.070175 0.000000
vt 0.947368 0.000000
vt 0.929825 0.000000
vt 0.912281 0.000000
vt 0.087719 0.000000
vt 0.894737 0.000000
vt 0.877193 0.000000
vt 0.105263 0.000000
vt 0.859649 0.000000
vt 0.526316 0.000000
vt 0.491228 0.000000
vt 0.508772 0.000000
vt 0.543860 0.000000
vt 0.842105 0.000000
vt 0.561404 0.000000
vt 0.122807 0.000000
vt 0.824561 0.000000
vt 0.578947 0.000000
vt 0.596491 0.000000
vt 0.807018 0.000000
vt 0.614035 0.000000
vt 0.789474 0.000000
vt 0.631579 0.000000
vt 0.771930 0.000000
vt 0.649123 0.000000
vt 0.140351 0.000000
vt 0.666667 0.000000
vt 0.754386 0.000000
vt 0.684211 0.000000
vt 0.736842 0.000000
vt 0.701754 0.000000
vt 0.719298 0.000000
vt 0.157895 0.000000
vt 0.175439 0.000000
vt 0.192982 0.000000
vt 0.473684 0.000000
vt 0.210526 0.000000
vt 0.456140 0.000000
vt 0.438596 0.000000
vt 0.228070 0.000000
vt 0.421053 0.000000
vt 0.403509 0.000000
vt 0.385965 0.000000
vt 0.245614 0.000000
vt 0.368421 0.000000
vt 0.350877 0.000000
vt 0.263158 0.000000
vt 0.333333 0.000000
vt 0.315789 0.000000
vt 0.280702 0.000000
vt 0.298246 0.000000
vt 0.454545 0.000000
vt 0.272727 0.000000
vt 0.363636 0.000000
vt 0.181818 0.000000
vt 0.000000 0.000000
vt 0.090909 0.000000
vt 1.000000 0.000000
vt 0.545455 0.000000
vt 0.727273 0.000000
vt 0.909091 0.000000
vt 0.636364 0.000000
vt 0.818182 0.000000
vt 0.387755 0.000000
vt 0.367347 0.000000
vt 0.377551 0.000000
vt 0.357143 0.000000
vt 0.397959 0.000000
vt 0.346939 0.000000
vt 0.408163 0.000000
vt 0.336735 0.000000
vt 0.418367 0.000000
vt 0.326531 0.000000
vt 0.428571 0.000000
vt 0.316327 0.000000
vt 0.438776 0.000000
vt 0.306122 0.000000
vt 0.448980 0.000000
vt 0.877551 0.000000
vt 0.867347 0.000000
vt 0.887755 0.000000
vt 0.857143 0.000000
vt 0.897959 0.000000
vt 0.846939 0.000000
vt 0.908163 0.000000
vt 0.295918 0.000000
vt 0.836735 0.000000
vt 0.459184 0.000000
vt 0.918367 0.000000
vt 0.826531 0.000000
vt 0.928571 0.000000
vt 0.816327 0.000000
vt 0.938776 0.000000
vt 0.806122 0.000000
vt 0.948980 0.000000
vt 0.469388 0.000000
vt 0.285714 0.000000
vt 0.795918 0.000000
vt 0.959184 0.000000
vt 0.785714 0.000000
vt 0.969388 0.000000
vt 0.479592 0.000000
vt 0.275510 0.000000
vt 0.775510 0.000000
vt 0.979592 0.000000
vt 0.765306 0.000000
vt 0.989796 0.000000
vt 0.489796 0.000000
vt 0.755102 0.000000
vt 0.265306 0.000000
vt 1.000000 0.000000
vt 0.500000 0.000000
vt 0.255102 0.000000
vt 0.510204 0.000000
vt 0.244898 0.000000
vt 0.234694 0.000000
vt 0.520408 0.000000
vt 0.224490 0.000000
vt 0.214286 0.000000
vt 0.530612 0.000000
vt 0.204082 0.000000
vt 0.540816 0.000000
vt 0.193878 0.000000
vt 0.010204 0.000000
vt 0.744898 0.000000
vt 0.000000 0.000000
vt 0.183673 0.000000
vt 0.020408 0.000000
vt 0.030612 0.000000
vt 0.551020 0.000000
vt 0.173469 0.000000
vt 0.040816 0.000000
vt 0.051020 0.000000
vt 0.163265 0.000000
vt 0.061224 0.000000
vt 0.153061 0.000000
vt 0.071429 0.000000
vt 0.561224 0.000000
vt 0.081633 0.000000
vt 0.142857 0.000000
vt 0.091837 0.000000
vt 0.132653 0.000000
vt 0.102041 0.000000
vt 0.112245 0.000000
vt 0.122449 0.000000
vt 0.571429 0.000000
vt 0.734694 0.000000
vt 0.581633 0.000000
vt 0.724490 0.000000
vt 0.714286 0.000000
vt 0.591837 0.000000
vt 0.704082 0.000000
vt 0.693878 0.000000
vt 0.602041 0.000000
vt 0.683673 0.000000
vt 0.673469 0.000000
vt 0.612245 0.000000
vt 0.663265 0.000000
vt 0.653061 0.000000
vt 0.642857 0.000000
vt 0.622449 0.000000
vt 0.632653 0.000000
vt 0.285714 0.000000
vt 0.000000 0.000000
vt 0.142857 0.000000
vt 1.000000 0.000000
vt 0.428571 0.000000
vt 0.571429 0.000000
vt 0.857143 0.000000
vt 0.714286 0.000000

vn 0.0000 1.0000 0.0000
vn 0.0000 0.0000 1.0000

s off

f 2/1/1 58/2/1 1/3/1
f 2/1/1 57/4/1 58/2/1
f 2/1/1 56/5/1 57/4/1
f 3/6/1 56/5/1 2/1/1
f 4/7/2 56/5/2 3/6/2
f 5/8/1 55/9/1 4/7/1
f 55/9/2 56/5/2 4/7/2
f 5/8/1 54/10/1 55/9/1
f 5/8/1 53/11/1 54/10/1
f 6/12/1 53/11/1 5/8/1
f 6/12/1 52/13/1 53/11/1
f 6/12/1 51/14/1 52/13/1
f 7/15/1 51/14/1 6/12/1
f 7/15/1 50/16/1 51/14/1
f 31/17/1 29/18/1 30/19/1
f 32/20/1 29/18/1 31/17/1
f 7/15/1 49/21/1 50/16/1
f 33/22/1 29/18/1 32/20/1
f 8/23/1 49/21/1 7/15/1
f 8/23/1 48/24/1 49/21/1
f 34/25/1 29/18/1 33/22/1
f 35/26/1 29/18/1 34/25/1
f 8/23/1 47/27/1 48/24/1
f 36/28/1 29/18/1 35/26/1
f 8/23/1 46/29/1 47/27/1
f 37/30/1 29/18/1 36/28/1
f 8/23/1 45/31/1 46/29/1
f 38/32/1 29/18/1 37/30/1
f 9/33/1 45/31/1 8/23/1
f 39/34/1 29/18/1 38/32/1
f 9/33/1 44/35/1 45/31/1
f 40/36/1 29/18/1 39/34/1
f 9/33/1 43/37/1 44/35/1
f 41/38/1 29/18/1 40/36/1
f 9/33/1 42/39/1 43/37/1
f 42/39/1 29/18/1 41/38/1
f 9/33/1 29/18/1 42/39/1
f 10/40/1 29/18/1 9/33/1
f 11/41/1 29/18/1 10/40/1
f 12/42/1 29/18/1 11/41/1
f 12/42/1 28/43/1 29/18/1
f 13/44/1 28/43/1 12/42/1
f 13/44/1 27/45/1 28/43/1
f 13/44/1 26/46/1 27/45/1
f 14/47/1 26/46/1 13/44/1
f 14/47/1 25/48/1 26/46/1
f 14/47/1 24/49/1 25/48/1
f 14/47/1 23/50/1 24/49/1
f 15/51/1 23/50/1 14/47/1
f 15/51/1 22/52/1 23/50/1
f 15/51/1 21/53/1 22/52/1
f 16/54/1 21/53/1 15/51/1
f 16/54/1 20/55/1 21/53/1
f 16/54/1 19/56/1 20/55/1
f 17/57/1 19/56/1 16/54/1
f 17/57/1 18/58/1 19/56/1
f 64/59/1 62/60/1 63/61/1
f 64/59/1 61/62/1 62/60/1
f 61/62/1 59/63/1 60/64/1
f 61/62/1 70/65/1 59/63/1
f 64/59/1 70/65/1 61/62/1
f 65/66/1 70/65/1 64/59/1
f 65/66/1 67/67/1 70/65/1
f 67/67/1 69/68/1 70/65/1
f 65/66/1 66/69/1 67/67/1
f 68/70/1 69/68/1 67/67/1
f 109/71/1 107/72/1 108/73/1
f 109/71/1 106/74/1 107/72/1
f 110/75/1 106/74/1 109/71/1
f 110/75/1 105/76/1 106/74/1
f 111/77/1 105/76/1 110/75/1
f 111/77/1 104/78/1 105/76/1
f 112/79/1 104/78/1 111/77/1
f 112/79/1 103/80/1 104/78/1
f 113/81/1 103/80/1 112/79/1
f 113/81/1 102/82/1 103/80/1
f 114/83/1 102/82/1 113/81/1
f 114/83/1 101/84/1 102/82/1
f 115/85/1 157/86/1 114/83/1
f 157/86/1 101/84/1 114/83/1
f 115/85/1 156/87/1 157/86/1
f 158/88/1 101/84/1 157/86/1
f 115/85/1 155/89/1 156/87/1
f 159/90/1 101/84/1 158/88/1
f 115/85/1 154/91/1 155/89/1
f 160/92/1 101/84/1 159/90/1
f 160/92/1 100/93/1 101/84/1
f 115/85/1 153/94/1 154/91/1
f 116/95/1 153/94/1 115/85/1
f 161/96/1 100/93/1 160/92/1
f 116/95/1 152/97/1 153/94/1
f 162/98/1 100/93/1 161/96/1
f 116/95/1 151/99/1 152/97/1
f 163/100/1 100/93/1 162/98/1
f 116/95/1 150/101/1 151/99/1
f 164/102/1 100/93/1 163/100/1
f 117/103/1 150/101/1 116/95/1
f 164/102/1 99/104/1 100/93/1
f 117/103/1 149/105/1 150/101/1
f 165/106/1 99/104/1 164/102/1
f 117/103/1 148/107/1 149/105/1
f 166/108/1 99/104/1 165/106/1
f 118/109/1 148/107/1 117/103/1
f 166/108/1 98/110/1 99/104/1
f 118/109/1 147/111/1 148/107/1
f 167/112/1 98/110/1 166/108/1
f 118/109/1 146/113/1 147/111/1
f 168/114/1 98/110/1 167/112/1
f 119/115/1 146/113/1 118/109/1
f 119/115/1 145/116/1 146/113/1
f 168/114/1 97/117/1 98/110/1
f 169/118/1 97/117/1 168/114/1
f 119/115/1 169/118/1 145/116/1
f 119/115/1 97/117/1 169/118/1
f 120/119/1 97/117/1 119/115/1
f 120/119/1 96/120/1 97/117/1
f 121/121/1 95/122/1 120/119/1
f 95/122/1 96/120/1 120/119/1
f 121/121/1 94/123/1 95/122/1
f 122/124/1 94/123/1 121/121/1
f 122/124/1 93/125/1 94/123/1
f 122/124/1 92/126/1 93/125/1
f 123/127/1 92/126/1 122/124/1
f 123/127/1 91/128/1 92/126/1
f 124/129/1 91/128/1 123/127/1
f 124/129/1 90/130/1 91/128/1
f 72/131/1 144/132/1 71/133/1
f 124/129/1 89/134/1 90/130/1
f 73/135/1 144/132/1 72/131/1
f 74/136/1 144/132/1 73/135/1
f 125/137/1 89/134/1 124/129/1
f 125/137/1 88/138/1 89/134/1
f 75/139/1 144/132/1 74/136/1
f 76/140/1 144/132/1 75/139/1
f 125/137/1 87/141/1 88/138/1
f 77/142/1 144/132/1 76/140/1
f 125/137/1 86/143/1 87/141/1
f 78/144/1 144/132/1 77/142/1
f 126/145/1 86/143/1 125/137/1
f 79/146/1 144/132/1 78/144/1
f 126/145/1 85/147/1 86/143/1
f 80/148/1 144/132/1 79/146/1
f 126/145/1 84/149/1 85/147/1
f 81/150/1 144/132/1 80/148/1
f 82/151/1 144/132/1 81/150/1
f 126/145/1 83/152/1 84/149/1
f 83/152/1 144/132/1 82/151/1
f 126/145/1 144/132/1 83/152/1
f 127/153/1 144/132/1 126/145/1
f 127/153/1 143/154/1 144/132/1
f 128/155/1 143/154/1 127/153/1
f 128/155/1 142/156/1 143/154/1
f 128/155/1 141/157/1 142/156/1
f 129/158/1 141/157/1 128/155/1
f 129/158/1 140/159/1 141/157/1
f 129/158/1 139/160/1 140/159/1
f 130/161/1 139/160/1 129/158/1
f 130/161/1 138/162/1 139/160/1
f 130/161/1 137/163/1 138/162/1
f 131/164/1 137/163/1 130/161/1
f 131/164/1 136/165/1 137/163/1
f 131/164/1 135/166/1 136/165/1
f 131/164/1 134/167/1 135/166/1
f 132/168/1 134/167/1 131/164/1
f 132/168/1 133/169/1 134/167/1
f 172/170/1 170/171/1 171/172/1
f 172/170/1 177/173/1 170/171/1
f 173/174/2 177/173/2 172/170/2
f 174/175/1 176/176/1 173/174/1
f 176/176/2 177/173/2 173/174/2
f 174/175/1 175/177/1 176/176/1
